<?xml version="1.0" standalone="no"?>
<!DOCTYPE svg PUBLIC "-//W3C//DTD SVG 20010904//EN"
 "http://www.w3.org/TR/2001/REC-SVG-20010904/DTD/svg10.dtd">
<svg version="1.0" xmlns="http://www.w3.org/2000/svg"
 width="3000.000000pt" height="3000.000000pt" viewBox="0 0 3000.000000 3000.000000"
 preserveAspectRatio="xMidYMid meet">
<g transform="translate(0.000000,3000.000000) scale(0.100000,-0.100000)"
fill="#000000" stroke="none">
<path d="M0 15000 l0 -15000 15000 0 15000 0 0 15000 0 15000 -15000 0 -15000
0 0 -15000z m24637 9493 l-2 -3588 -23 -140 c-134 -821 -523 -1492 -1147
-1978 -253 -197 -519 -340 -838 -452 l-148 -51 148 -48 c452 -147 820 -372
1154 -705 203 -203 351 -398 488 -645 199 -359 327 -792 361 -1220 6 -85 10
-1335 10 -3657 l0 -3529 -2517 0 c-1616 0 -2568 4 -2658 10 -852 62 -1668 341
-2385 815 -310 205 -530 385 -806 660 -215 215 -348 367 -506 579 -298 399
-546 861 -709 1319 -22 62 -42 119 -45 127 -3 8 -36 -73 -73 -180 -205 -594
-488 -1097 -890 -1580 -123 -148 -433 -458 -581 -581 -665 -553 -1432 -909
-2262 -1049 -411 -69 -176 -64 -3161 -67 l-2697 -3 3 3567 c2 3305 4 3576 20
3671 116 703 407 1260 918 1758 334 324 706 556 1162 724 l128 47 -93 33
c-746 265 -1385 813 -1768 1516 -167 306 -282 649 -342 1014 l-23 135 -2 3533
-3 3532 2642 0 c1701 0 2686 -4 2763 -10 650 -55 1247 -221 1805 -500 499
-250 880 -529 1280 -936 356 -363 617 -727 845 -1179 117 -232 185 -393 266
-628 31 -93 59 -170 61 -173 3 -2 12 22 22 54 71 227 278 677 423 917 225 374
438 648 738 954 265 270 512 476 815 678 747 499 1637 793 2530 836 36 2 1198
4 2583 5 l2517 2 -3 -3587z m-18319 -17087 c273 -67 482 -230 637 -494 20 -35
35 -64 33 -66 -15 -9 -305 -146 -310 -146 -3 0 -25 33 -49 73 -264 446 -902
393 -1086 -91 -33 -89 -42 -237 -19 -334 34 -147 145 -302 269 -376 101 -61
188 -85 307 -86 240 -1 417 107 552 337 l27 46 152 -74 c83 -41 153 -76 156
-78 2 -3 -22 -49 -54 -103 -72 -123 -222 -278 -327 -339 -199 -115 -406 -161
-607 -135 -394 51 -700 314 -811 696 -20 69 -23 100 -22 249 0 156 2 177 28
260 106 347 391 603 745 670 93 18 288 13 379 -9z m4233 9 c214 -37 383 -128
535 -287 274 -286 337 -713 157 -1073 -175 -348 -567 -562 -947 -515 -450 54
-791 393 -845 839 -13 107 -8 200 19 316 112 484 594 806 1081 720z m8446 4
c102 -14 241 -61 317 -106 126 -76 222 -206 246 -332 5 -29 10 -89 10 -132 l0
-79 -175 0 -175 0 0 75 c0 111 -27 152 -131 199 -106 49 -300 58 -418 19 -105
-33 -162 -113 -141 -194 21 -76 107 -123 419 -225 329 -108 462 -180 551 -298
173 -229 105 -546 -150 -701 -127 -77 -353 -125 -529 -111 -307 25 -523 142
-619 334 -36 73 -37 80 -41 199 l-3 123 171 0 171 0 0 -64 c0 -76 11 -110 48
-149 63 -67 177 -99 347 -99 96 0 134 5 190 22 148 47 200 165 112 253 -48 48
-139 87 -367 161 -235 76 -335 117 -426 177 -71 46 -155 132 -183 188 -51 100
-65 234 -36 346 74 283 415 449 812 394z m2017 -18 c211 -55 353 -161 430
-321 28 -60 31 -75 34 -187 l4 -123 -170 0 -170 0 -3 83 c-4 73 -8 88 -32 120
-110 145 -539 154 -639 14 -17 -23 -23 -46 -23 -84 0 -46 4 -56 35 -88 48 -50
143 -92 355 -161 328 -105 442 -162 548 -273 85 -89 120 -170 125 -289 5 -116
-15 -198 -67 -280 -78 -120 -204 -203 -380 -249 -82 -22 -118 -26 -246 -26
-278 -1 -476 69 -618 217 -85 89 -127 207 -127 356 l0 80 175 0 175 0 0 -76
c0 -60 4 -84 21 -110 56 -91 256 -146 448 -124 115 13 176 35 221 80 41 41 54
82 40 131 -24 82 -108 128 -422 229 -270 88 -393 147 -488 237 -112 105 -154
198 -153 343 1 175 77 311 229 410 76 49 196 93 299 110 95 15 308 4 399 -19z
m-18691 -628 l314 -626 175 344 c97 189 239 471 317 627 l141 282 150 0 150 0
-2 -917 -3 -918 -172 -3 -173 -2 -1 492 0 493 -232 -462 -232 -463 -115 0
-115 0 -230 454 -230 454 -5 -482 -5 -481 -172 -3 -173 -2 0 920 0 920 150 0
150 0 313 -627z m2265 -290 l-3 -918 -172 -3 -173 -2 0 920 0 920 175 0 175 0
-2 -917z m3907 893 c228 -66 394 -233 450 -451 31 -123 15 -308 -38 -426 -45
-100 -151 -221 -234 -268 -13 -7 27 -68 212 -326 125 -175 229 -324 232 -332
4 -11 -34 -13 -205 -13 l-211 0 -202 285 -202 285 -233 0 -234 0 -2 -282 -3
-283 -172 -3 -173 -2 0 920 0 921 478 -4 c417 -3 485 -6 537 -21z m4470 -5
c236 -78 375 -263 375 -501 0 -121 -35 -227 -103 -313 l-30 -38 50 -52 c91
-93 139 -197 150 -321 17 -209 -101 -418 -288 -510 -144 -70 -139 -69 -696
-74 l-503 -3 0 921 0 921 488 -3 c477 -4 488 -4 557 -27z m2055 0 c118 -36
187 -77 275 -166 125 -125 177 -253 178 -435 0 -151 -45 -288 -132 -397 -37
-47 -117 -119 -158 -141 -12 -7 32 -74 211 -325 125 -174 229 -323 232 -332 5
-13 -19 -15 -203 -15 l-210 0 -202 285 -202 285 -235 0 -234 0 0 -285 0 -285
-172 2 -173 3 -3 918 -2 918 477 -3 c462 -4 480 -5 553 -27z m2403 -879 c229
-500 417 -914 417 -920 0 -18 -364 -17 -377 1 -5 6 -45 90 -88 185 l-78 172
-430 -2 -430 -3 -81 -180 -82 -180 -192 -3 c-106 -1 -192 0 -192 2 0 3 49 112
109 243 223 490 723 1578 728 1586 2 4 66 7 142 7 l137 0 417 -908z m5987 733
l0 -175 -490 0 -490 0 0 -205 0 -205 418 -2 417 -3 0 -170 0 -170 -417 -3
-418 -2 0 -190 0 -190 490 0 490 0 0 -175 0 -175 -665 0 -665 0 0 920 0 920
665 0 665 0 0 -175z m1555 151 c290 -86 464 -315 465 -612 0 -221 -107 -415
-299 -541 -2 -1 101 -148 228 -327 127 -179 231 -328 231 -331 0 -3 -95 -4
-212 -3 l-212 3 -201 282 -200 283 -232 0 -233 0 -2 -282 -3 -283 -172 -3
-173 -2 0 920 0 921 478 -4 c420 -3 484 -6 537 -21z m1405 -896 l0 -920 -172
2 -173 3 -3 905 c-1 498 0 911 3 918 3 9 48 12 175 12 l170 0 0 -920z m2000
745 l0 -175 -490 0 -490 0 0 -205 0 -205 415 0 415 0 0 -175 0 -175 -415 0
-415 0 0 -190 0 -190 490 0 490 0 -2 -172 -3 -173 -662 -3 -663 -2 0 920 0
920 665 0 665 0 0 -175z m-21220 -2375 c312 -39 602 -177 832 -399 122 -116
210 -232 282 -371 119 -230 166 -421 167 -677 0 -396 -145 -749 -426 -1028
-351 -350 -828 -498 -1309 -405 -523 102 -947 474 -1115 980 -55 164 -74 308
-68 500 8 238 48 396 153 606 216 435 644 732 1149 797 64 8 255 6 335 -3z
m8877 -19 c282 -62 518 -188 721 -385 86 -83 232 -259 232 -279 0 -6 -345
-247 -354 -247 -3 0 -32 35 -64 78 -174 228 -414 373 -681 413 -109 15 -293 6
-393 -20 -292 -76 -536 -273 -667 -537 -78 -159 -106 -281 -104 -464 1 -160
29 -284 93 -418 79 -166 213 -323 353 -415 90 -60 234 -124 333 -149 120 -29
341 -32 459 -4 224 51 424 177 568 356 l67 84 0 148 0 148 -472 2 -473 3 0
205 0 205 683 3 682 2 0 -785 0 -785 -205 0 -205 0 0 125 c0 69 -2 125 -4 125
-3 0 -38 -24 -79 -53 -145 -104 -315 -177 -510 -219 -147 -31 -398 -31 -547 1
-310 66 -536 187 -756 406 -220 219 -349 461 -410 770 -27 137 -25 397 5 535
45 209 128 403 243 564 81 115 229 263 344 345 175 124 412 221 629 256 126
20 388 13 512 -14z m11514 0 c252 -54 439 -148 579 -292 133 -136 188 -272
197 -486 l6 -133 -220 0 -221 0 -3 113 c-4 100 -7 117 -31 159 -56 94 -167
166 -325 210 -68 19 -105 22 -283 22 -167 1 -217 -2 -270 -17 -212 -58 -324
-171 -324 -326 0 -86 28 -144 99 -210 94 -85 249 -150 706 -295 391 -124 553
-208 709 -365 75 -75 103 -112 132 -171 49 -102 68 -187 68 -307 0 -394 -294
-682 -785 -769 -133 -24 -421 -24 -555 -1 -377 65 -654 235 -770 471 -56 114
-70 179 -70 323 l0 123 214 0 214 0 4 -102 c3 -91 7 -109 33 -157 54 -98 169
-172 344 -219 89 -24 112 -26 306 -26 184 0 219 3 286 21 151 42 260 117 304
208 30 62 32 160 5 223 -54 124 -204 211 -568 328 -349 111 -436 141 -550 191
-259 111 -423 247 -507 418 -50 100 -66 174 -67 295 -1 199 58 350 188 489
154 164 350 257 629 297 130 19 402 11 526 -15z m-23953 -808 l2 -813 180 0
180 0 -2 -222 -3 -223 -177 -3 -178 -2 0 -395 0 -395 -225 0 -225 0 0 395 0
395 -757 2 -758 3 -3 175 -2 175 805 863 805 862 178 -2 177 -3 3 -812z m7413
755 c312 -85 526 -255 645 -512 102 -221 111 -509 24 -747 -74 -203 -239 -398
-412 -485 l-50 -25 25 -32 c52 -69 697 -978 697 -982 0 -3 -119 -5 -265 -5
l-265 0 -322 455 -323 454 -422 1 -423 0 0 -455 0 -455 -217 2 -218 3 -3 1408
-2 1408 717 -3 718 -3 96 -27z m2239 -1378 l0 -1410 -220 0 -220 0 0 1410 0
1410 220 0 220 0 0 -1410z m5330 0 l0 -1410 -220 0 -220 0 0 1410 0 1410 220
0 220 0 0 -1410z m2339 404 l796 -1000 3 1003 2 1003 220 0 220 0 0 -1410 0
-1410 -177 0 -178 0 -800 1006 -800 1005 -3 -1005 -2 -1006 -218 2 -217 3 -3
1408 -2 1407 182 -2 182 -3 795 -1001z m4451 791 l0 -215 -790 0 -790 0 0
-395 0 -395 670 0 670 0 0 -215 0 -215 -670 0 -670 0 0 -365 0 -365 788 -2
787 -3 0 -215 0 -215 -1005 0 -1005 0 -3 1408 -2 1407 1010 0 1010 0 0 -215z"/>
<path d="M19500 27023 c-375 -28 -773 -115 -1108 -242 -1350 -512 -2328 -1710
-2532 -3103 -34 -237 -40 -389 -40 -1070 l0 -668 28 -6 c704 -167 1248 -461
1741 -943 86 -83 95 -90 106 -73 12 16 1066 1285 1086 1307 6 6 107 -89 269
-250 143 -143 260 -263 260 -266 0 -4 -82 -78 -182 -165 -370 -321 -966 -840
-1050 -915 l-87 -78 38 -53 c207 -289 405 -691 562 -1138 l47 -135 1568 -3
c1397 -2 1583 -1 1699 14 918 114 1616 872 1685 1830 6 88 10 1200 10 3052 l0
2912 -2027 -2 c-1116 -1 -2048 -3 -2073 -5z m505 -773 c135 -11 333 -39 354
-50 7 -4 -42 -10 -110 -13 -189 -8 -342 -61 -514 -177 -488 -330 -852 -1147
-961 -2160 -25 -227 -25 -718 -1 -908 43 -338 122 -590 234 -746 43 -60 37
-56 -123 86 -387 343 -683 735 -828 1095 -211 527 -189 1029 76 1698 90 229
296 517 522 732 354 338 809 487 1351 443z m928 -104 c112 -21 356 -101 468
-155 140 -66 265 -154 369 -260 186 -187 293 -397 364 -712 32 -144 33 -171 2
-96 -93 225 -289 394 -577 495 -99 35 -273 75 -409 94 -125 17 -560 17 -705
-1 -571 -68 -1088 -259 -1320 -488 l-58 -57 55 106 c245 470 504 765 804 916
131 66 333 124 562 162 136 23 305 21 445 -4z m1390 -847 c491 -312 768 -669
868 -1122 30 -136 37 -425 15 -628 -15 -130 -25 -177 -65 -299 -93 -280 -205
-474 -366 -636 -184 -185 -408 -298 -702 -353 -99 -19 -314 -44 -320 -37 -2 1
24 10 58 20 76 21 166 66 245 122 333 236 519 848 475 1570 -39 659 -211 1216
-455 1473 l-61 64 100 -52 c55 -29 148 -84 208 -122z m-1342 121 c411 -54 635
-128 818 -270 468 -364 626 -791 494 -1340 l-18 -75 -6 115 c-5 88 -13 135
-34 199 -125 370 -551 704 -1118 875 -236 71 -431 100 -687 99 -262 0 -560
-39 -689 -90 -34 -13 -32 -10 28 48 215 206 522 377 776 433 145 31 232 33
436 6z m-1007 -135 c-237 -119 -389 -366 -450 -730 -22 -126 -25 -492 -6 -645
65 -527 239 -1044 473 -1400 59 -89 197 -241 264 -288 26 -19 21 -18 -50 7
-490 177 -818 397 -1037 695 -124 170 -216 397 -259 641 -19 108 -23 167 -23
345 -1 189 2 228 22 320 132 600 437 915 1042 1074 90 23 97 18 24 -19z m813
-420 c540 -70 977 -316 1138 -640 63 -126 79 -196 79 -335 -1 -98 -5 -127 -28
-195 -52 -153 -135 -280 -279 -432 -152 -158 -301 -270 -482 -360 -175 -88
-322 -126 -475 -126 -265 2 -459 156 -564 451 -83 233 -95 500 -30 698 93 287
352 484 660 501 282 16 508 -128 570 -362 15 -53 18 -193 7 -260 -5 -32 -22
-55 -93 -127 -103 -105 -169 -140 -272 -146 -135 -8 -243 50 -445 242 -68 64
-129 116 -137 116 -39 0 -47 -103 -21 -275 38 -253 127 -421 262 -493 215
-114 509 -16 765 257 98 105 168 217 211 338 28 79 31 99 30 198 -2 332 -182
587 -483 683 -113 36 -190 46 -365 46 -318 0 -530 -51 -647 -154 -91 -80 -161
-220 -189 -380 -17 -101 -15 -359 5 -493 46 -314 173 -710 304 -947 l36 -65
-55 45 c-29 25 -103 86 -163 135 -60 50 -137 126 -173 170 -163 202 -277 463
-329 750 -26 145 -24 388 3 515 52 242 156 410 319 519 101 68 220 105 424
135 68 9 313 4 417 -9z m-3596 -720 c480 -437 835 -943 990 -1405 150 -450
128 -843 -69 -1225 l-57 -109 -2 64 c-21 590 -48 828 -133 1155 -96 371 -240
679 -450 960 -99 132 -127 162 -139 150 -7 -7 1 -28 25 -65 320 -504 546
-1216 633 -2000 12 -102 23 -206 26 -232 4 -31 2 -48 -5 -48 -16 0 -318 162
-460 248 -523 314 -759 562 -855 897 -71 247 -42 420 145 870 150 361 179 472
187 713 3 89 9 161 14 160 4 -2 72 -61 150 -133z m5256 -530 c-4 -221 -8 -264
-31 -374 -105 -491 -369 -786 -901 -1006 -230 -95 -603 -123 -838 -61 -255 66
-491 233 -687 486 l-62 80 67 -50 c218 -165 478 -199 830 -110 494 125 1103
538 1428 968 76 101 164 277 174 345 l7 52 9 -40 c5 -22 6 -152 4 -290z
m-3464 -689 c240 -519 991 -843 2022 -873 715 -20 1363 129 1639 376 l39 36
-37 -60 c-139 -220 -273 -392 -431 -554 -356 -366 -704 -541 -1158 -581 -206
-19 -468 9 -772 81 -147 35 -247 74 -419 161 -526 268 -815 632 -920 1158 -26
128 -47 343 -45 459 l1 66 24 -98 c13 -53 39 -130 57 -171z m967 -1610 c315
-59 647 -188 994 -384 140 -79 408 -259 554 -372 l122 -95 -107 -17 c-259 -42
-401 -106 -848 -383 -141 -87 -308 -168 -410 -197 -68 -20 -103 -23 -235 -23
-166 0 -243 14 -390 72 -264 104 -593 408 -979 903 l-89 115 31 7 c151 32 937
34 1217 3 413 -45 839 -145 1130 -265 47 -19 72 -25 76 -18 10 16 -14 31 -166
108 -578 291 -1278 365 -2130 226 l-140 -22 22 24 c38 40 238 169 328 210 142
66 316 115 480 136 19 2 118 3 220 1 147 -3 213 -8 320 -29z"/>
<path d="M6390 24133 c0 -1910 4 -2929 11 -3008 73 -852 738 -1632 1581 -1854
259 -69 180 -66 1857 -66 l1514 0 8 25 c139 475 347 896 625 1263 102 135 106
142 87 156 -11 9 -245 198 -520 420 l-502 405 256 260 c141 144 259 262 263
264 3 1 107 -127 231 -285 270 -347 566 -722 585 -743 12 -12 21 -8 67 37 260
253 676 525 1052 688 143 63 466 173 588 201 l78 18 -4 810 c-4 860 -5 881
-57 1176 -174 983 -727 1860 -1530 2426 -523 368 -1095 584 -1775 670 -129 17
-303 18 -2277 21 l-2138 4 0 -2888z m771 2012 c182 -62 318 -94 447 -105 232
-19 376 -63 501 -151 160 -112 242 -278 268 -544 l8 -80 94 150 c163 262 240
350 364 419 177 98 423 141 569 100 185 -52 246 -267 154 -543 l-21 -64 -90
-24 c-190 -49 -328 -143 -383 -260 -22 -48 -27 -72 -27 -138 1 -107 20 -165
105 -315 158 -277 402 -621 739 -1045 162 -204 221 -267 512 -556 l329 -325
-43 -42 -43 -43 -1454 1471 -1454 1470 -47 -46 -48 -47 818 -826 c449 -454
1104 -1116 1454 -1471 l637 -644 -34 -35 -34 -34 -169 153 c-504 457 -662 599
-803 720 -414 355 -658 527 -961 675 -186 91 -242 109 -345 109 -68 0 -89 -4
-137 -28 -124 -60 -184 -170 -224 -411 l-8 -50 -98 -33 c-292 -98 -450 -51
-527 155 -69 184 -41 373 80 553 89 133 292 310 497 435 45 27 81 50 80 51 -1
1 -51 7 -112 14 -302 32 -485 162 -575 410 -48 131 -70 266 -90 550 -10 149
-16 176 -69 319 l-32 84 28 29 c14 15 30 28 33 28 3 0 53 -16 111 -35z m4492
-220 c170 -44 265 -149 303 -335 31 -154 -1 -325 -86 -455 -86 -132 -294 -301
-544 -440 -56 -32 -82 -51 -71 -53 10 -2 82 1 160 7 300 23 388 11 461 -63 51
-51 67 -102 66 -214 -1 -121 -37 -191 -191 -372 -30 -36 -57 -67 -58 -69 -5
-8 -52 30 -158 129 -193 180 -229 192 -373 120 -210 -105 -299 -340 -247 -646
18 -103 46 -206 117 -427 28 -87 48 -160 44 -164 -3 -3 -31 11 -62 32 -170
117 -313 410 -355 730 -18 140 -6 395 25 527 138 589 426 991 873 1219 51 26
89 50 86 53 -4 3 -46 6 -95 6 -104 0 -168 -19 -255 -76 -226 -150 -552 -625
-666 -972 -72 -215 -81 -279 -81 -537 0 -200 3 -243 22 -329 39 -175 99 -333
219 -578 64 -131 115 -239 112 -241 -2 -2 -25 -21 -52 -42 -26 -21 -49 -36
-50 -34 -2 2 -40 56 -84 119 -300 431 -340 513 -493 1031 -44 146 -104 337
-135 425 -119 334 -163 380 -359 373 l-100 -4 -33 63 c-18 35 -33 73 -33 85 0
29 114 186 194 268 79 81 149 119 222 119 103 0 246 -62 293 -128 12 -17 44
-88 72 -159 28 -70 54 -131 58 -136 4 -4 15 28 25 70 30 130 103 340 156 451
163 341 403 547 736 631 136 34 247 40 337 16z m-3129 -2366 c3 -3 -4 -32 -16
-65 -29 -82 -30 -194 -1 -250 27 -52 78 -96 151 -133 31 -16 228 -95 437 -176
498 -193 1030 -407 1091 -438 27 -14 91 -62 142 -107 l92 -82 -21 -37 c-12
-20 -25 -39 -29 -44 -11 -13 -218 61 -292 104 -173 101 -383 180 -573 215
-152 29 -472 26 -614 -4 -364 -79 -723 -273 -981 -532 -110 -109 -242 -310
-305 -465 -20 -48 -13 -41 50 50 335 483 793 766 1375 851 226 33 504 5 700
-69 142 -53 339 -168 434 -253 l29 -26 -24 -49 -24 -48 -70 36 c-114 59 -182
79 -345 107 -205 34 -324 41 -435 27 -231 -30 -400 -187 -413 -385 -4 -73 -4
-73 33 -115 20 -22 65 -58 99 -78 131 -79 206 -134 206 -151 0 -37 -53 -123
-103 -168 -100 -89 -209 -128 -367 -128 -90 -1 -112 2 -152 22 -123 61 -142
177 -93 556 14 110 24 201 22 203 -6 5 -177 -259 -221 -342 -56 -103 -127
-194 -217 -279 -236 -222 -553 -249 -733 -61 -104 108 -152 250 -143 425 8
152 52 275 154 429 137 206 370 398 582 480 43 16 151 48 242 71 90 22 172 44
182 48 14 5 -24 25 -144 76 -168 72 -221 105 -273 169 -60 74 -45 212 39 363
80 143 196 230 345 258 33 6 177 2 184 -5z m3006 -406 c-164 -370 -1140 -1367
-1547 -1579 -36 -19 -68 -32 -71 -30 -5 6 182 223 402 466 311 344 1223 1230
1234 1199 2 -4 -6 -30 -18 -56z m907 -214 c136 -34 243 -108 330 -226 103
-138 139 -245 130 -383 -8 -143 -62 -248 -192 -375 -82 -79 -154 -126 -253
-163 -58 -22 -83 -26 -187 -26 -110 0 -128 3 -215 33 -142 48 -283 130 -422
244 l-27 22 55 85 c31 47 69 111 85 143 16 31 31 57 34 57 2 0 24 -14 49 -30
89 -60 154 -83 253 -88 86 -4 96 -2 155 25 88 41 132 83 170 161 29 58 33 78
36 162 5 143 -15 190 -130 303 l-90 88 74 -7 c40 -3 105 -15 145 -25z m-1049
-295 c75 -37 155 -128 181 -205 11 -35 21 -75 21 -91 0 -40 -110 -250 -184
-349 -153 -207 -351 -376 -581 -499 -72 -38 -85 -42 -131 -37 -110 11 -212 88
-265 200 -16 34 -29 69 -29 78 0 9 46 46 110 88 294 192 554 456 740 753 30
48 62 88 71 88 8 0 38 -12 67 -26z m-315 -1272 c40 -54 89 -127 109 -163 85
-152 136 -333 124 -441 -14 -119 -86 -281 -181 -403 -143 -186 -370 -256 -581
-180 -91 32 -148 69 -234 152 -84 79 -135 162 -165 265 -17 60 -35 238 -24
238 3 0 19 -18 35 -41 41 -60 121 -129 184 -158 46 -21 70 -25 145 -25 80 0
97 3 157 31 79 37 137 94 175 171 24 50 27 68 27 152 0 106 -19 167 -88 274
-20 31 -36 58 -36 60 0 2 33 22 73 45 39 22 99 58 132 80 33 23 63 41 68 41 4
0 40 -44 80 -98z"/>
<path d="M14735 21104 c-16 -2 -84 -11 -150 -20 -714 -96 -1390 -499 -1841
-1100 -613 -816 -741 -1913 -335 -2859 255 -593 722 -1095 1294 -1390 388
-201 759 -298 1197 -312 491 -16 929 83 1366 306 1154 592 1755 1892 1468
3179 -84 378 -255 749 -491 1067 -449 603 -1095 993 -1843 1111 -100 15 -586
29 -665 18z"/>
<path d="M8320 17383 c-749 -77 -1411 -533 -1735 -1196 -106 -216 -164 -422
-185 -657 -6 -75 -10 -1144 -10 -3033 l0 -2917 2178 3 c2371 3 2214 0 2527 58
750 139 1427 503 1970 1060 609 624 960 1370 1081 2299 14 102 18 252 21 807
l5 682 -44 11 c-613 155 -1213 486 -1655 913 l-111 108 -179 -228 c-98 -125
-275 -351 -393 -501 l-213 -274 -264 264 c-201 201 -260 265 -250 274 6 6 120
96 252 199 332 262 733 583 740 595 3 6 -14 36 -38 67 -271 355 -513 859 -623
1298 -14 55 -30 117 -35 138 l-10 37 -1497 -2 c-823 0 -1513 -3 -1532 -5z
m2176 -493 c182 -43 311 -126 515 -329 162 -162 287 -323 412 -529 83 -137
103 -196 73 -221 -13 -11 -31 0 -128 81 -467 392 -899 627 -1441 784 -16 5
-14 10 12 46 55 74 159 138 274 168 93 24 182 25 283 0z m-231 -545 c368 -75
693 -238 1110 -554 189 -143 237 -190 233 -227 -4 -35 -11 -35 -96 1 -104 43
-192 58 -322 52 -122 -5 -215 -29 -321 -82 l-49 -25 0 27 c0 16 7 61 15 101
23 110 3 172 -61 188 -49 12 -187 -3 -262 -29 -75 -26 -208 -110 -343 -217
l-75 -60 -66 64 c-114 112 -178 109 -291 -14 -37 -40 -104 -137 -166 -239 -57
-94 -107 -174 -111 -176 -4 -3 -18 23 -31 58 -22 59 -23 74 -24 327 0 244 2
271 23 344 75 267 247 430 503 475 72 13 235 6 334 -14z m212 -1187 c26 -13
48 -28 50 -34 6 -17 -83 -110 -152 -160 -109 -77 -258 -133 -397 -149 -71 -8
-168 3 -168 19 0 19 121 147 197 207 172 137 347 181 470 117z m316 -182 c45
-25 88 -50 96 -55 11 -7 7 -21 -22 -72 -49 -85 -52 -88 -129 -147 -91 -68
-178 -116 -271 -147 -131 -43 -317 -56 -317 -21 0 23 72 161 115 222 76 106
190 195 322 250 74 31 102 27 206 -30z m1499 -159 c400 -483 597 -860 664
-1266 52 -318 -72 -586 -329 -711 -140 -67 -217 -81 -490 -87 -210 -5 -243 -3
-285 12 -26 10 -51 21 -55 25 -4 3 66 57 156 118 184 125 258 187 299 251 51
81 30 152 -69 240 l-57 51 20 27 c73 98 182 267 206 319 39 84 60 192 56 287
-3 74 -5 80 -36 108 -40 36 -70 37 -187 7 -47 -12 -87 -19 -90 -17 -2 3 9 41
26 84 83 212 79 418 -10 626 -37 85 -38 88 -17 91 43 7 83 -26 198 -165z m263
12 c249 -138 473 -306 642 -482 156 -164 232 -290 274 -457 38 -149 14 -309
-65 -444 -25 -43 -102 -126 -117 -126 -4 0 -25 54 -47 119 -160 464 -437 917
-818 1337 -91 100 -93 114 -19 114 31 0 66 -14 150 -61z m-1420 -108 c66 -31
88 -47 118 -88 57 -77 90 -158 83 -197 -22 -118 -223 -261 -520 -370 -84 -31
-103 -35 -126 -26 -39 16 -62 64 -68 140 -12 171 106 421 252 531 91 69 132
70 261 10z m-3225 -461 c372 -373 633 -543 968 -630 173 -45 230 -67 267 -104
29 -29 27 -65 -7 -102 -33 -37 -71 -37 -248 2 -226 49 -326 78 -458 135 -466
199 -794 521 -935 916 -24 67 -58 216 -57 252 1 9 62 -49 143 -134 78 -82 225
-233 327 -335z m2131 464 c38 -8 69 -18 69 -21 0 -3 -14 -32 -32 -64 -41 -77
-144 -175 -230 -217 -85 -42 -200 -71 -312 -79 l-89 -6 33 49 c72 106 164 217
213 255 118 94 208 115 348 83z m509 -275 c0 -25 -95 -142 -153 -189 -73 -60
-166 -109 -337 -180 -69 -28 -149 -65 -179 -81 -30 -16 -56 -27 -59 -25 -2 3
-4 44 -5 93 -3 126 14 175 82 244 84 84 205 123 431 138 178 12 220 12 220 0z
m937 -153 c77 -60 107 -105 107 -164 -1 -94 -71 -191 -304 -419 l-165 -162
-13 37 c-52 146 -6 375 111 550 56 83 168 202 191 202 8 0 40 -20 73 -44z
m-1748 -113 c21 -124 -19 -243 -109 -327 -73 -68 -146 -99 -247 -104 -46 -3
-83 -2 -83 0 0 3 16 40 35 82 19 42 46 123 61 179 29 114 53 175 77 196 32 26
93 40 174 41 l81 0 11 -67z m801 -42 c0 -40 -39 -109 -83 -145 -88 -71 -159
-89 -248 -63 -113 33 -115 30 107 164 l199 121 12 -27 c7 -14 12 -37 13 -50z
m-3164 -6 c137 -26 247 -92 325 -195 100 -133 385 -345 617 -460 210 -104 389
-156 619 -179 50 -5 104 -16 119 -24 l28 -14 -41 -27 c-90 -60 -236 -79 -393
-52 -52 9 -190 48 -306 87 -424 141 -752 339 -1097 660 -92 87 -158 171 -144
185 2 2 21 10 43 18 51 19 134 19 230 1z m3628 -235 c22 -94 22 -246 1 -325
-52 -199 -177 -313 -354 -323 -50 -3 -81 -1 -85 6 -10 17 88 300 140 404 25
51 69 123 96 161 61 82 170 182 179 164 4 -7 14 -46 23 -87z m-226 68 c-8 -13
-63 -107 -123 -210 -59 -104 -111 -188 -116 -188 -15 0 -43 106 -43 165 -1 71
29 132 85 177 35 28 157 77 193 78 17 0 17 -2 4 -22z m891 -10 c7 -12 22 -46
32 -76 63 -183 -38 -406 -265 -588 -94 -75 -93 -75 -95 55 -2 155 60 306 210
509 50 67 94 122 97 122 4 0 13 -10 21 -22z m-1665 -39 c3 -17 6 -86 6 -153 0
-106 -3 -127 -22 -166 -27 -52 -71 -84 -146 -106 -51 -15 -214 -45 -219 -40
-2 1 -7 27 -13 56 -12 61 6 150 41 206 38 62 139 145 233 190 49 24 95 44 102
44 6 0 14 -14 18 -31z m401 -91 c6 -5 11 -48 13 -96 4 -109 -13 -147 -78 -179
-47 -23 -266 -70 -276 -60 -5 5 33 251 51 335 5 22 6 22 143 16 75 -4 142 -11
147 -16z m-906 -323 c2 -152 -29 -199 -151 -232 -58 -16 -75 -18 -81 -7 -12
20 10 184 32 244 26 69 83 127 142 144 l44 13 7 -41 c3 -22 7 -77 7 -121z
m-1924 4 c40 -14 121 -59 185 -101 219 -145 394 -220 651 -278 154 -35 309
-50 624 -61 171 -5 314 -14 318 -18 16 -16 -15 -47 -102 -103 -138 -89 -245
-138 -396 -180 -66 -18 -106 -22 -225 -23 -162 0 -221 12 -400 85 -307 124
-1158 556 -1169 593 -2 10 60 57 109 82 49 25 113 34 230 31 82 -2 120 -8 175
-27z m3695 -31 c46 -232 -21 -357 -295 -552 l-80 -58 -3 82 c-7 197 105 414
277 538 40 28 77 52 81 52 4 0 13 -28 20 -62z m-752 -42 c7 -7 -31 -90 -77
-171 -88 -152 -273 -284 -366 -261 -40 10 -59 65 -51 148 20 218 137 304 400
293 48 -2 91 -6 94 -9z m-603 -50 c40 -17 39 -12 24 -126 -14 -117 -37 -201
-61 -227 -33 -35 -112 -57 -201 -55 -115 2 -117 4 -117 116 0 101 18 178 51
220 54 69 218 107 304 72z m887 -251 c5 -16 10 -61 11 -100 3 -115 -41 -167
-177 -206 -39 -11 -124 -37 -188 -58 l-117 -38 -6 36 c-7 47 10 180 30 228 48
114 170 173 349 170 l90 -2 8 -30z m-3226 -134 c29 -11 80 -35 111 -54 100
-60 173 -93 358 -161 99 -37 199 -74 222 -83 24 -8 57 -26 74 -39 l31 -23 -32
-16 c-34 -18 -102 -13 -460 31 -206 25 -607 97 -775 139 -66 16 -51 53 48 117
183 118 281 138 423 89z m2654 -88 c0 -68 -53 -149 -119 -182 -45 -23 -146
-48 -230 -57 l-64 -7 7 39 c20 114 66 185 138 210 18 7 86 13 151 13 105 1
117 -1 117 -16z m-925 -143 c-48 -69 -149 -183 -201 -226 -233 -194 -563 -327
-950 -383 -263 -38 -904 -71 -974 -50 -22 7 -40 17 -40 23 1 47 153 260 242
341 29 27 78 60 108 74 76 36 203 36 345 -2 193 -50 277 -61 485 -61 227 -1
321 13 501 74 137 45 260 105 384 187 129 85 146 89 100 23z m411 -127 c-3
-38 -11 -111 -16 -163 -5 -52 -10 -152 -10 -221 -1 -430 114 -813 346 -1159
45 -67 85 -139 96 -173 57 -183 34 -426 -49 -515 -44 -47 -60 -35 -121 90 -27
57 -111 227 -185 378 -295 602 -381 840 -394 1087 -12 225 42 405 179 596 52
73 127 146 152 147 5 0 6 -30 2 -67z m-336 -82 c-116 -206 -184 -391 -221
-606 -31 -182 -31 -457 0 -674 12 -85 24 -157 26 -161 2 -3 8 -42 15 -88 8
-61 8 -92 0 -124 -21 -76 -101 -175 -278 -343 l-101 -96 -30 16 c-37 18 -37
19 -52 215 -17 219 -15 484 4 600 28 163 216 799 269 905 11 22 61 101 111
175 90 135 91 136 196 207 58 39 107 69 109 68 2 -2 -20 -44 -48 -94z m799
-51 c13 -22 20 -59 24 -133 13 -240 113 -449 380 -791 108 -140 245 -281 555
-575 202 -192 224 -217 201 -233 -20 -12 -33 -8 -230 69 -225 88 -302 133
-435 252 -331 295 -552 687 -638 1129 -42 214 -36 250 49 292 55 27 72 25 94
-10z m-271 -57 c6 -16 16 -64 22 -108 57 -413 183 -746 391 -1025 34 -47 129
-153 210 -236 91 -93 156 -169 172 -200 60 -119 73 -241 37 -358 -12 -36 -23
-66 -26 -66 -12 0 -72 35 -107 62 -48 39 -203 218 -312 364 -326 434 -510 878
-509 1229 0 148 36 312 75 345 31 25 35 25 47 -7z m-1004 -185 c-34 -113 -63
-158 -458 -714 l-99 -139 -319 -225 c-307 -217 -359 -250 -422 -264 l-29 -7 6
51 c7 61 57 157 162 315 215 323 496 603 830 827 101 68 299 175 328 177 5 1
5 -9 1 -21z m-659 -225 c0 -7 -76 -105 -170 -219 -189 -230 -233 -267 -365
-308 -65 -21 -226 -49 -417 -73 -41 -5 -43 -5 -43 22 0 50 73 186 135 253 129
139 274 209 620 297 169 44 240 52 240 28z m1079 -442 c16 -17 63 -112 115
-237 49 -115 109 -254 134 -310 59 -131 70 -173 70 -269 0 -124 -42 -236 -123
-327 -46 -53 -76 -61 -90 -24 -13 35 -180 1061 -180 1107 0 26 27 89 38 89 4
0 21 -13 36 -29z m-649 -143 c-58 -315 -141 -506 -290 -666 -70 -76 -120 -111
-206 -147 -35 -15 -70 -29 -78 -32 -12 -5 -13 12 -7 108 11 189 52 324 136
454 38 58 405 423 439 436 30 12 31 -19 6 -153z"/>
<path d="M18655 17328 c-2 -7 -16 -60 -30 -118 -99 -396 -297 -832 -541 -1187
l-84 -122 123 -104 c67 -57 212 -177 322 -266 110 -90 320 -262 467 -384 l268
-221 -207 -210 c-114 -116 -231 -236 -261 -266 l-53 -55 -36 40 c-19 22 -139
168 -266 325 -195 239 -393 477 -614 736 l-43 49 -97 -96 c-453 -445 -1052
-783 -1676 -944 l-108 -28 3 -656 c5 -723 6 -740 73 -1077 101 -499 292 -954
591 -1404 677 -1021 1783 -1692 2964 -1800 75 -6 812 -10 2128 -10 l2012 0 0
3038 c0 3275 2 3107 -51 3335 -86 367 -292 715 -569 961 -124 110 -247 192
-405 270 -223 111 -433 171 -684 196 -162 16 -3220 14 -3226 -2z m2619 -1033
c144 -38 253 -97 355 -192 188 -172 291 -384 293 -600 l0 -93 83 0 c187 0 379
-83 544 -236 115 -106 185 -216 237 -374 26 -79 28 -97 28 -245 1 -175 -11
-239 -75 -388 -65 -155 -212 -334 -348 -426 -188 -128 -402 -197 -821 -267
-30 -5 -18 -10 78 -30 225 -46 432 -114 583 -189 309 -155 513 -405 585 -720
22 -96 24 -281 5 -370 -36 -166 -119 -313 -247 -436 -170 -164 -359 -249 -556
-249 l-78 0 0 -70 c0 -142 -51 -306 -135 -435 -21 -33 -84 -106 -140 -161 -91
-92 -112 -107 -206 -152 -146 -70 -215 -86 -374 -86 -155 1 -251 22 -392 89
-119 56 -169 91 -275 193 -227 219 -352 506 -469 1077 l-12 60 -18 -120 c-51
-352 -148 -640 -279 -829 -100 -144 -271 -285 -428 -351 -141 -59 -201 -70
-372 -70 -135 0 -165 3 -230 23 -216 68 -395 214 -485 397 -55 110 -76 209
-76 355 l0 125 -97 1 c-250 4 -507 127 -667 322 -244 295 -253 728 -22 1074
111 167 271 301 482 404 387 189 898 285 1649 310 l199 7 -429 284 c-236 156
-436 288 -444 294 -12 7 50 73 305 323 176 173 323 312 327 308 4 -4 109 -189
234 -412 125 -223 232 -411 239 -418 9 -10 13 29 18 180 24 696 169 1297 396
1639 163 247 418 419 695 469 72 13 270 4 340 -15z"/>
<path d="M21605 14922 c-389 -582 -516 -752 -714 -956 -216 -221 -379 -328
-598 -391 -48 -14 -89 -28 -92 -30 -19 -20 205 11 297 40 415 132 839 605
1201 1340 82 165 174 375 168 381 -2 2 -120 -171 -262 -384z"/>
<path d="M20170 13320 c285 -363 922 -1007 1390 -1406 110 -93 249 -204 256
-204 8 0 -46 68 -160 200 -376 440 -1036 1080 -1426 1386 -91 71 -100 75 -60
24z"/>
<path d="M19947 13230 c-75 -340 -315 -642 -837 -1048 -74 -57 -241 -181 -370
-275 -317 -229 -475 -347 -466 -347 4 0 80 36 169 79 295 144 573 314 811 494
162 122 421 382 505 505 146 216 218 428 209 612 l-3 65 -18 -85z"/>
<path d="M10264 7066 c-221 -51 -410 -240 -455 -454 -17 -83 -7 -254 19 -326
66 -181 214 -322 397 -378 91 -28 243 -30 330 -4 210 63 366 222 421 429 18
69 18 228 -1 301 -49 187 -199 348 -385 412 -92 32 -234 41 -326 20z"/>
<path d="M7830 6769 l0 -290 293 3 292 3 50 27 c100 53 149 136 149 253 0 157
-95 261 -261 285 -37 5 -170 10 -295 10 l-228 0 0 -291z"/>
<path d="M12270 6861 l0 -201 285 0 c306 0 316 1 373 54 64 57 80 159 39 237
-18 34 -36 51 -82 74 l-59 30 -278 3 -278 4 0 -201z"/>
<path d="M12270 6121 l0 -211 309 0 c328 0 343 2 404 50 32 25 62 81 72 131
15 81 -39 173 -125 213 -42 20 -66 21 -352 24 l-308 4 0 -211z"/>
<path d="M14340 6770 l0 -290 273 0 c309 0 345 6 415 66 24 20 55 59 69 88 23
43 27 64 27 131 0 67 -4 88 -26 130 -48 91 -123 141 -235 156 -38 4 -170 8
-295 9 l-228 0 0 -290z"/>
<path d="M16732 6577 c-73 -161 -132 -296 -132 -300 0 -4 122 -7 271 -7 213 0
270 3 266 13 -29 68 -261 574 -266 579 -4 4 -66 -124 -139 -285z"/>
<path d="M24300 6770 l0 -290 273 0 c154 0 288 5 309 10 58 17 130 71 162 123
24 39 30 62 34 126 8 133 -35 219 -136 274 -68 37 -151 46 -419 47 l-223 0 0
-290z"/>
<path d="M6765 4400 c-322 -68 -578 -272 -721 -574 -105 -221 -122 -492 -47
-731 106 -335 380 -594 722 -681 564 -145 1134 212 1253 785 29 137 21 348
-16 474 -56 190 -134 319 -275 457 -110 108 -214 175 -350 226 -172 65 -387
81 -566 44z"/>
<path d="M2728 3649 l-408 -434 407 -3 c223 -1 408 -1 410 1 2 2 2 199 1 437
l-3 433 -407 -434z"/>
<path d="M9910 3855 l0 -525 438 0 c481 1 546 6 655 58 187 88 288 250 290
462 1 158 -44 274 -147 375 -73 72 -138 109 -242 135 -71 19 -112 20 -536 20
l-458 0 0 -525z"/>
</g>
</svg>
